<svg width="544" height="104" viewBox="0 0 544 104" fill="none" xmlns="http://www.w3.org/2000/svg">
<path d="M3.2 99H0.2V102H3.2V99ZM21.488 99V102H24.488V99H21.488ZM21.488 58.248V55.248H18.488V58.248H21.488ZM64.4 58.248H67.4V55.248H64.4V58.248ZM64.4 99H61.4V102H64.4V99ZM82.688 99V102H85.688V99H82.688ZM82.688 3.384H85.688V0.383995H82.688V3.384ZM64.4 3.384V0.383995H61.4V3.384H64.4ZM64.4 42.696V45.696H67.4V42.696H64.4ZM21.488 42.696H18.488V45.696H21.488V42.696ZM21.488 3.384H24.488V0.383995H21.488V3.384ZM3.2 3.384V0.383995H0.2V3.384H3.2ZM3.2 102H21.488V96H3.2V102ZM24.488 99V58.248H18.488V99H24.488ZM21.488 61.248H64.4V55.248H21.488V61.248ZM61.4 58.248V99H67.4V58.248H61.4ZM64.4 102H82.688V96H64.4V102ZM85.688 99V3.384H79.688V99H85.688ZM82.688 0.383995H64.4V6.384H82.688V0.383995ZM61.4 3.384V42.696H67.4V3.384H61.4ZM64.4 39.696H21.488V45.696H64.4V39.696ZM24.488 42.696V3.384H18.488V42.696H24.488ZM21.488 0.383995H3.2V6.384H21.488V0.383995ZM0.2 3.384V99H6.2V3.384H0.2ZM189.87 3.384H192.87V0.383995H189.87V3.384ZM172.446 3.384V0.383995H169.446V3.384H172.446ZM129.822 3.384H132.822V0.383995H129.822V3.384ZM111.534 3.384V0.383995H108.534V3.384H111.534ZM151.134 103.872C163.557 103.872 174.098 100.401 181.531 92.9882C188.967 85.5716 192.87 74.6299 192.87 60.552H186.87C186.87 73.5461 183.285 82.7644 177.294 88.7398C171.298 94.7193 162.472 97.872 151.134 97.872V103.872ZM192.87 60.552V3.384H186.87V60.552H192.87ZM189.87 0.383995H172.446V6.384H189.87V0.383995ZM169.446 3.384V60.552H175.446V3.384H169.446ZM169.446 60.552C169.446 68.7025 167.894 73.9924 165.137 77.2405C162.475 80.3769 158.19 82.176 151.278 82.176V88.176C159.198 88.176 165.498 86.0871 169.711 81.1235C173.83 76.2716 175.446 69.2495 175.446 60.552H169.446ZM151.278 82.176C144.572 82.176 140.176 80.3028 137.375 77.0324C134.493 73.6682 132.822 68.2806 132.822 60.264H126.822C126.822 68.9514 128.607 76.0198 132.818 80.9356C137.109 85.9452 143.44 88.176 151.278 88.176V82.176ZM132.822 60.264V3.384H126.822V60.264H132.822ZM129.822 0.383995H111.534V6.384H129.822V0.383995ZM108.534 3.384V60.408H114.534V3.384H108.534ZM108.534 60.408C108.534 74.0065 112.087 84.984 119.465 92.5609C126.855 100.151 137.638 103.872 151.134 103.872V97.872C138.711 97.872 129.693 94.465 123.764 88.3752C117.821 82.272 114.534 73.0175 114.534 60.408H108.534ZM218.469 99H215.469V102H218.469V99ZM235.749 99V102H238.749V99H235.749ZM235.749 19.8L238.605 18.881L232.749 19.8H235.749ZM261.237 99L258.381 99.919L259.051 102H261.237V99ZM276.789 99V102H278.953L279.636 99.9456L276.789 99ZM303.285 19.224H306.285L300.438 18.2784L303.285 19.224ZM303.285 99H300.285V102H303.285V99ZM321.285 99V102H324.285V99H321.285ZM321.285 3.384H324.285V0.383995H321.285V3.384ZM291.909 3.384V0.383995H289.718L289.051 2.47074L291.909 3.384ZM269.589 73.224L266.713 74.0779L269.483 83.4089L272.446 74.1373L269.589 73.224ZM248.853 3.384L251.729 2.53011L251.091 0.383995H248.853V3.384ZM218.469 3.384V0.383995H215.469V3.384H218.469ZM218.469 102H235.749V96H218.469V102ZM238.749 99V19.8H232.749V99H238.749ZM232.893 20.719L258.381 99.919L264.093 98.081L238.605 18.881L232.893 20.719ZM261.237 102H276.789V96H261.237V102ZM279.636 99.9456L306.132 20.1696L300.438 18.2784L273.942 98.0544L279.636 99.9456ZM300.285 19.224V99H306.285V19.224H300.285ZM303.285 102H321.285V96H303.285V102ZM324.285 99V3.384H318.285V99H324.285ZM321.285 0.383995H291.909V6.384H321.285V0.383995ZM289.051 2.47074L266.731 72.3107L272.446 74.1373L294.766 4.29725L289.051 2.47074ZM272.465 72.3701L251.729 2.53011L245.977 4.23788L266.713 74.0779L272.465 72.3701ZM248.853 0.383995H218.469V6.384H248.853V0.383995ZM215.469 3.384V99H221.469V3.384H215.469ZM344.822 99L342.014 97.9429L340.487 102H344.822V99ZM362.966 99V102H365.071L365.787 100.02L362.966 99ZM372.182 73.512V70.512H370.077L369.361 72.4919L372.182 73.512ZM408.038 73.512L410.864 72.506L410.155 70.512H408.038V73.512ZM417.11 99L414.284 100.006L414.993 102H417.11V99ZM436.55 99V102H440.836L439.369 97.9727L436.55 99ZM401.702 3.384L404.521 2.35672L403.802 0.383995H401.702V3.384ZM380.822 3.384V0.383995H378.746L378.014 2.32692L380.822 3.384ZM377.51 58.392L374.693 57.3613L373.218 61.392H377.51V58.392ZM390.47 22.968L393.298 21.9677L390.518 14.1057L387.653 21.9373L390.47 22.968ZM402.998 58.392V61.392H407.241L405.826 57.3917L402.998 58.392ZM344.822 102H362.966V96H344.822V102ZM365.787 100.02L375.003 74.5321L369.361 72.4919L360.145 97.9799L365.787 100.02ZM372.182 76.512H408.038V70.512H372.182V76.512ZM405.212 74.518L414.284 100.006L419.936 97.994L410.864 72.506L405.212 74.518ZM417.11 102H436.55V96H417.11V102ZM439.369 97.9727L404.521 2.35672L398.883 4.41127L433.731 100.027L439.369 97.9727ZM401.702 0.383995H380.822V6.384H401.702V0.383995ZM378.014 2.32692L342.014 97.9429L347.63 100.057L383.63 4.44107L378.014 2.32692ZM380.327 59.4227L393.287 23.9987L387.653 21.9373L374.693 57.3613L380.327 59.4227ZM387.642 23.9683L400.17 59.3923L405.826 57.3917L393.298 21.9677L387.642 23.9683ZM402.998 55.392H377.51V61.392H402.998V55.392ZM460.175 99H457.175V102H460.175V99ZM477.455 99V102H480.455V99H477.455ZM477.455 29.16L479.966 27.5187L474.455 19.0867V29.16H477.455ZM523.103 99L520.592 100.641L521.48 102H523.103V99ZM540.527 99V102H543.527V99H540.527ZM540.527 3.384H543.527V0.383995H540.527V3.384ZM523.247 3.384V0.383995H520.247V3.384H523.247ZM523.247 68.04L520.737 69.6834L526.247 78.0981V68.04H523.247ZM480.911 3.384L483.421 1.74059L482.533 0.383995H480.911V3.384ZM460.175 3.384V0.383995H457.175V3.384H460.175ZM460.175 102H477.455V96H460.175V102ZM480.455 99V29.16H474.455V99H480.455ZM474.944 30.8013L520.592 100.641L525.614 97.3587L479.966 27.5187L474.944 30.8013ZM523.103 102H540.527V96H523.103V102ZM543.527 99V3.384H537.527V99H543.527ZM540.527 0.383995H523.247V6.384H540.527V0.383995ZM520.247 3.384V68.04H526.247V3.384H520.247ZM525.757 66.3966L483.421 1.74059L478.401 5.0274L520.737 69.6834L525.757 66.3966ZM480.911 0.383995H460.175V6.384H480.911V0.383995ZM457.175 3.384V99H463.175V3.384H457.175Z" fill="white"/>
</svg>
