<svg width="30" height="49" viewBox="0 0 30 49" fill="none" xmlns="http://www.w3.org/2000/svg">
<g clip-path="url(#clip0)">
<path d="M19.6002 20.9935C21.4743 20.9902 23.3141 21.5002 24.9233 22.4693C26.7631 20.0352 27.7572 17.0576 27.7521 13.9966C27.7521 6.26468 21.5388 -0.00292969 13.8748 -0.00292969C6.21071 -0.00292969 0 6.26659 0 13.9985C0 20.3727 4.22303 25.7518 10.0006 27.4432C10.7916 25.5327 12.1251 23.9009 13.8333 22.7533C15.5414 21.6056 17.5479 20.9934 19.6002 20.9935Z" fill="#FF0000"/>
<path d="M9.2651 32.6543C7.76443 32.8625 6.35114 33.4891 5.18428 34.4636C4.01741 35.4381 3.14327 36.7218 2.66023 38.1702C2.17719 39.6186 2.10442 41.1743 2.45011 42.6622C2.7958 44.1501 3.54623 45.5111 4.61695 46.5921C5.68767 47.6732 7.03618 48.4313 8.51074 48.7811C9.98531 49.131 11.5274 49.0588 12.9635 48.5725C14.3996 48.0863 15.6726 47.2054 16.6394 46.0289C17.6063 44.8525 18.2284 43.4271 18.436 41.9133C16.0936 41.6466 13.9105 40.5852 12.2443 38.903C10.5782 37.2208 9.52771 35.0176 9.2651 32.6543Z" fill="#FF0000"/>
<path d="M24.9234 22.4707C23.2244 24.7226 20.8896 26.4028 18.226 27.2904C15.5624 28.178 12.6949 28.2313 10.0007 27.4433C9.47074 28.7236 9.19871 30.0975 9.20045 31.485C9.2001 31.875 9.22108 32.2648 9.26331 32.6525C9.63082 32.602 10.0013 32.5766 10.3722 32.5764C11.5354 32.576 12.6853 32.8272 13.7441 33.313C14.803 33.7989 15.7464 34.5081 16.5105 35.3929C17.2747 36.2777 17.842 37.3175 18.1742 38.4422C18.5063 39.5669 18.5956 40.7503 18.4361 41.9128C20.7988 42.182 23.1817 41.6263 25.1877 40.3382C27.1936 39.0501 28.7015 37.1075 29.4601 34.834C30.2187 32.5605 30.1822 30.0934 29.3567 27.8438C28.5312 25.5941 26.9665 23.6978 24.9234 22.4707Z" fill="#FF0000"/>
</g>
<defs>
<clipPath id="clip0">
<rect width="30" height="49" fill="white"/>
</clipPath>
</defs>
</svg>
