<svg width="290" height="474" viewBox="0 0 290 474" fill="none" xmlns="http://www.w3.org/2000/svg">
<g clip-path="url(#clip0)">
<path d="M189.469 203.079C207.585 203.047 225.37 207.981 240.925 217.355C258.71 193.809 268.32 165.006 268.27 135.395C268.27 60.6003 208.209 -0.0292969 134.123 -0.0292969C60.0369 -0.0292969 0 60.6187 0 135.413C0 197.074 40.8226 249.108 96.6727 265.47C104.319 246.989 117.21 231.204 133.722 220.102C150.234 209 169.63 203.078 189.469 203.079Z" fill="#FF0000"/>
<path d="M89.5629 315.88C75.0564 317.894 61.3947 323.956 50.1149 333.382C38.8352 342.809 30.3852 355.227 25.7159 369.238C21.0465 383.249 20.343 398.298 23.6847 412.691C27.0263 427.084 34.2805 440.25 44.6308 450.707C54.981 461.164 68.0167 468.498 82.2708 471.882C96.5249 475.267 111.432 474.568 125.314 469.864C139.196 465.161 151.502 456.639 160.848 445.259C170.194 433.878 176.208 420.091 178.215 405.447C155.572 402.867 134.469 392.599 118.362 376.327C102.256 360.054 92.1015 338.741 89.5629 315.88Z" fill="#FF0000"/>
<path d="M240.925 217.369C224.502 239.153 201.932 255.406 176.184 263.992C150.436 272.578 122.717 273.094 96.6729 265.472C91.5502 277.856 88.9206 291.147 88.9373 304.568C88.9339 308.341 89.1368 312.112 89.545 315.862C93.0976 315.374 96.6788 315.128 100.264 315.126C111.509 315.122 122.624 317.552 132.86 322.252C143.096 326.952 152.214 333.813 159.602 342.372C166.989 350.931 172.473 360.989 175.683 371.869C178.894 382.748 179.757 394.197 178.215 405.442C201.055 408.046 224.09 402.67 243.48 390.21C262.871 377.75 277.448 358.958 284.781 336.965C292.114 314.973 291.761 291.107 283.781 269.346C275.801 247.584 260.676 229.239 240.925 217.369Z" fill="#FF0000"/>
</g>
<defs>
<clipPath id="clip0">
<rect width="290" height="474" fill="white"/>
</clipPath>
</defs>
</svg>
