<?xml version="1.0" encoding="utf-8"?>
<!-- Generator: Adobe Illustrator 25.0.1, SVG Export Plug-In . SVG Version: 6.00 Build 0)  -->
<svg version="1.1" id="Layer_1" xmlns="http://www.w3.org/2000/svg" xmlns:xlink="http://www.w3.org/1999/xlink" x="0px" y="0px"
	 viewBox="0 0 2788.59 540" style="enable-background:new 0 0 2788.59 540;" xml:space="preserve">
<style type="text/css">
	.st0{fill:#FFFFFF;}
</style>
<g>
	<path class="st0" d="M103.7,359.96c-44.54,5.61-79,43.59-79,89.65c0,49.92,40.47,90.39,90.39,90.39
		c45.77,0,83.56-34.02,89.54-78.15C151.52,455.58,109.47,413.22,103.7,359.96z"/>
	<path class="st0" d="M276.77,248.07c-28.2,36.77-72.57,60.48-122.49,60.48c-14.66,0-28.84-2.05-42.28-5.86
		c-5.79,13.75-9,28.86-9,44.71c0,4.24,0.25,8.43,0.69,12.55c3.73-0.47,7.53-0.74,11.39-0.74c49.92,0,90.39,40.47,90.39,90.39
		c0,4.15-0.31,8.24-0.85,12.24c4.48,0.53,9.03,0.83,13.65,0.83c63.67,0,115.28-51.61,115.28-115.28
		C333.56,305.09,310.75,268.12,276.77,248.07z"/>
	<path class="st0" d="M218.28,232.13c21.35,0,41.33,5.83,58.48,15.95c19.93-25.99,31.79-58.51,31.79-93.79
		C308.56,69.07,239.48,0,154.28,0C69.07,0,0,69.07,0,154.28c0,70.55,47.35,130.03,112,148.41
		C129.47,261.23,170.47,232.13,218.28,232.13z"/>
</g>
<g>
	<path class="st0" d="M423.56,3.36h27.7V200.9h-27.7V3.36z"/>
	<path class="st0" d="M588.91,3.36h27.42l87.86,128.43c7.28,10.63,16.51,28.54,16.51,28.54h0.56c0,0-1.96-17.63-1.96-28.54V3.36H747
		V200.9h-27.14L631.72,72.75c-7.27-10.91-16.51-28.82-16.51-28.82h-0.56c0,0,1.96,17.63,1.96,28.82V200.9h-27.7V3.36z"/>
	<path class="st0" d="M884.65,3.36h27.42l87.86,128.43c7.28,10.63,16.51,28.54,16.51,28.54h0.56c0,0-1.96-17.63-1.96-28.54V3.36
		h27.7V200.9h-27.14L927.46,72.75c-7.27-10.91-16.51-28.82-16.51-28.82h-0.56c0,0,1.96,17.63,1.96,28.82V200.9h-27.7V3.36z"/>
	<path class="st0" d="M1467.72,3.36h29.94l48.97,139.62c3.64,10.63,7.55,27.14,7.55,27.14h0.56c0,0,3.92-16.51,7.55-27.14
		l49.52-139.62h29.38l-72.75,197.54h-27.7L1467.72,3.36z"/>
	<path class="st0" d="M1843.48,144.1h-74.43l-19.58,56.8h-28.54L1792,3.36h29.1l71.07,197.54h-28.82L1843.48,144.1z M1806.27,30.5
		c0,0-4.48,17.91-7.83,27.98l-22.1,62.68h59.88l-21.82-62.68c-3.36-10.07-7.56-27.98-7.56-27.98H1806.27z"/>
	<path class="st0" d="M2035.41,27.42h-67.71V3.36h163.12v24.06h-67.71V200.9h-27.7V27.42z"/>
	<path class="st0" d="M2243.01,3.36h27.7V200.9h-27.7V3.36z"/>
	<path class="st0" d="M2383.18,3.36h29.94l48.97,139.62c3.64,10.63,7.55,27.14,7.55,27.14h0.56c0,0,3.92-16.51,7.55-27.14
		l49.52-139.62h29.38l-72.75,197.54h-27.7L2383.18,3.36z"/>
	<path class="st0" d="M2669.12,3.36h114.72v24.06h-87.02v61.84h70.79v24.06h-70.79v63.51h91.77v24.06h-119.47V3.36z"/>
	<path class="st0" d="M425.24,339.94h63.51c59.04,0,98.77,36.09,98.77,98.21c0,62.68-39.73,98.49-98.77,98.49h-63.51V339.94z
		 M486.8,519.3c48.41,0,80.58-28.54,80.58-81.14c0-52.32-32.46-80.86-80.58-80.86h-42.25v162H486.8z"/>
	<path class="st0" d="M716.22,339.94h110.8v17.35h-91.49v71.63h74.71v17.35h-74.71v73.03h96.53v17.35H716.22V339.94z"/>
	<path class="st0" d="M956.84,499.99c0,0,20.43,21.55,51.48,21.55c21.55,0,39.17-12.87,39.17-34.14c0-49.52-98.21-36.93-98.21-97.93
		c0-28.26,24.9-52.88,61.28-52.88c34.14,0,52.6,19.03,52.6,19.03l-9.51,16.23c0,0-17.35-16.79-43.09-16.79
		c-25.18,0-41.41,16.51-41.41,33.86c0,46.73,98.21,33.3,98.21,97.93c0,29.38-22.66,53.16-59.6,53.16c-40.29,0-62.4-25.18-62.4-25.18
		L956.84,499.99z"/>
	<path class="st0" d="M1194.38,339.94h19.3v196.7h-19.3V339.94z"/>
	<path class="st0" d="M1440.59,336.59c45.61,0,69.95,22.94,69.95,22.94l-10.35,14.55c0,0-22.94-19.59-58.76-19.59
		c-47.57,0-79.74,36.65-79.74,83.38c0,48.41,33.3,84.22,78.06,84.22c38.33,0,61.83-28.82,61.83-28.82v-33.3h-33.58v-17.35h52.04
		v94.01h-17.91v-14.83c0-4.2,0.28-8.39,0.28-8.39h-0.56c0,0-22.66,26.58-64.07,26.58c-53.72,0-96.25-43.37-96.25-101.85
		C1341.54,381.35,1384.07,336.59,1440.59,336.59z"/>
	<path class="st0" d="M1650.71,339.94h18.75l100.45,141.58c6.72,9.79,16.23,26.58,16.23,26.58h0.56c0,0-1.68-16.23-1.68-26.58
		V339.94h19.3v196.7h-18.75l-100.45-141.58c-6.72-9.79-16.23-26.58-16.23-26.58h-0.56c0,0,1.68,16.23,1.68,26.58v141.58h-19.3
		V339.94z"/>
</g>
<path class="st0" d="M1310.46,152.61c14.04,0,27.17,3.83,38.45,10.48c13.1-17.09,20.9-38.46,20.9-61.66
	C1369.81,45.41,1324.4,0,1268.38,0c-56.02,0-101.43,45.41-101.43,101.43c0,46.38,31.13,85.49,73.63,97.57
	C1252.07,171.74,1279.03,152.61,1310.46,152.61z"/>
</svg>
