<?xml version="1.0" standalone="no"?>
<!DOCTYPE svg PUBLIC "-//W3C//DTD SVG 20010904//EN"
 "http://www.w3.org/TR/2001/REC-SVG-20010904/DTD/svg10.dtd">
<svg version="1.0" xmlns="http://www.w3.org/2000/svg"
 width="158.000000pt" height="158.000000pt" viewBox="0 0 158.000000 158.000000"
 preserveAspectRatio="xMidYMid meet">
<metadata>
Created by potrace 1.11, written by Peter Selinger 2001-2013
</metadata>
<g transform="translate(0.000000,158.000000) scale(0.100000,-0.100000)"
fill="#000000" stroke="none">
<path d="M663 1386 c-104 -34 -180 -103 -224 -201 -33 -76 -32 -201 4 -276 34
-70 101 -139 167 -170 48 -23 50 -26 44 -54 -4 -16 -8 -43 -9 -60 -1 -24 -9
-33 -41 -49 -86 -41 -123 -89 -131 -172 -9 -81 22 -143 95 -193 29 -20 49 -26
97 -26 101 0 170 46 200 133 12 33 16 36 59 38 183 12 295 209 213 375 -14 30
-41 66 -60 82 l-33 27 30 62 c28 56 31 71 30 153 0 77 -4 98 -27 146 -34 68
-95 129 -165 164 -66 33 -183 43 -249 21z m341 -527 c31 -14 32 -22 9 -49 -50
-59 -172 -109 -253 -105 -25 2 -55 3 -67 4 -30 1 -29 20 5 63 34 45 79 76 134
93 48 15 132 12 172 -6z m-271 -280 c43 -12 101 -59 122 -99 8 -15 17 -48 20
-74 6 -41 5 -46 -13 -46 -79 0 -184 96 -210 193 -10 36 -10 37 16 37 15 0 44
-5 65 -11z"/>
</g>
</svg>
